<?xml version="1.0"?>
<svg xmlns="http://www.w3.org/2000/svg" xmlns:xlink="http://www.w3.org/1999/xlink" xmlns:svgjs="http://svgjs.com/svgjs" version="1.1" width="512" height="512" x="0" y="0" viewBox="0 0 512 512" style="enable-background:new 0 0 512 512" xml:space="preserve" class=""><g>
<g xmlns="http://www.w3.org/2000/svg">
	<g>
		<path d="M195.951,120.099C87.906,120.099,0,208.005,0,316.049C0,424.1,87.906,512,195.951,512    c108.051,0,195.951-87.9,195.951-195.951C391.901,208.005,304.002,120.099,195.951,120.099z M195.951,474.074    c-87.135,0-158.025-70.89-158.025-158.025s70.89-158.025,158.025-158.025s158.025,70.89,158.025,158.025    S283.085,474.074,195.951,474.074z" fill="#68b1f6" data-original="#000000" style="" class=""/>
	</g>
</g>
<g xmlns="http://www.w3.org/2000/svg">
	<g>
		<rect x="283.941" y="86.55" transform="matrix(0.7071 -0.7071 0.7071 0.7071 44.425 318.2765)" width="244.93" height="37.926" fill="#68b1f6" data-original="#000000" style="" class=""/>
	</g>
</g>
<g xmlns="http://www.w3.org/2000/svg">
	<g>
		<path d="M493.037,0H323.002c-10.474,0-18.963,8.489-18.963,18.963s8.489,18.963,18.963,18.963h151.072v151.072    c0,10.474,8.489,18.963,18.963,18.963S512,199.471,512,188.998V18.963C512,8.489,503.511,0,493.037,0z" fill="#68b1f6" data-original="#000000" style="" class=""/>
	</g>
</g>
<g xmlns="http://www.w3.org/2000/svg">
</g>
<g xmlns="http://www.w3.org/2000/svg">
</g>
<g xmlns="http://www.w3.org/2000/svg">
</g>
<g xmlns="http://www.w3.org/2000/svg">
</g>
<g xmlns="http://www.w3.org/2000/svg">
</g>
<g xmlns="http://www.w3.org/2000/svg">
</g>
<g xmlns="http://www.w3.org/2000/svg">
</g>
<g xmlns="http://www.w3.org/2000/svg">
</g>
<g xmlns="http://www.w3.org/2000/svg">
</g>
<g xmlns="http://www.w3.org/2000/svg">
</g>
<g xmlns="http://www.w3.org/2000/svg">
</g>
<g xmlns="http://www.w3.org/2000/svg">
</g>
<g xmlns="http://www.w3.org/2000/svg">
</g>
<g xmlns="http://www.w3.org/2000/svg">
</g>
<g xmlns="http://www.w3.org/2000/svg">
</g>
</g></svg>
