<?xml version="1.0"?>
<svg xmlns="http://www.w3.org/2000/svg" xmlns:xlink="http://www.w3.org/1999/xlink" xmlns:svgjs="http://svgjs.com/svgjs" version="1.1" width="512" height="512" x="0" y="0" viewBox="0 0 412 412.00109" style="enable-background:new 0 0 512 512" xml:space="preserve" class=""><g><path xmlns="http://www.w3.org/2000/svg" d="m222.628906 38.160156c35.285156 35.25 47.375 87.535156 31.152344 134.695313-16.222656 47.160156-57.921875 80.941406-107.421875 87.027343v74.117188h42v32h-42v46h-32v-46h-42v-32h42v-74.117188c-56.605469-7.03125-102.074219-50.027343-112.261719-106.148437s17.273438-112.355469 67.792969-138.832031c50.523437-26.476563 112.386719-17.054688 152.738281 23.257812zm-22.628906 161.910156c38.460938-38.460937 38.460938-100.816406 0-139.28125-38.460938-38.460937-100.820312-38.460937-139.28125 0-38.460938 38.464844-38.460938 100.820313 0 139.28125 38.488281 38.398438 100.792969 38.398438 139.28125 0zm0 0" fill="#ea79b6" data-original="#00efd1" style="" class=""/></g></svg>
